# xmcd
#
# Track frame offsets:
#	150
#	23008
#	44381
#	61903
#	98840
#	114731
#	135056
#	156596
#	191666
#	211431
#	222489
#	234617
#	243427
#	252126
#	259875
#	265083
#
# Disc length: 3629 seconds
#
# Revision: 1
# Processed by: cddbd v1.5.1PL0 Copyright (c) Steve Scherf et al.
# Submitted via: CDex 1.50Beta5
#
DISCID=e60e2b10
DTITLE=CHORO CLUB - カラーズ
DYEAR=2003
DGENRE=
TTITLE0=ITAPEMIRIM
TTITLE1=春の夢
TTITLE2=Ane Rumier
TTITLE3=都会のマラカトゥ
TTITLE4=雪柳
TTITLE5=Colors#1 #2
TTITLE6=Alem das Nuvens
TTITLE7=春雨〜石けり
TTITLE8=VARANDIM
TTITLE9=Prato do dia
TTITLE10=「油断大敵」テーマ曲
TTITLE11=仁とネコ〜ちゃんちゃんこのテーマ
TTITLE12=泥棒刑事やめられない
TTITLE13=新生活
TTITLE14=牧子の別れ
TTITLE15=ネコの回想
EXTD=
EXTT0=
EXTT1=
EXTT2=
EXTT3=
EXTT4=
EXTT5=
EXTT6=
EXTT7=
EXTT8=
EXTT9=
EXTT10=
EXTT11=
EXTT12=
EXTT13=
EXTT14=
EXTT15=
PLAYORDER=
